<svg xmlns="http://www.w3.org/2000/svg" xmlns:xlink="http://www.w3.org/1999/xlink" viewBox="0 0 979.35 1318.7"><defs><style>.cls-1,.cls-17,.cls-2{opacity:0.5;}.cls-1{fill:url(#radial-gradient);}.cls-2{fill:none;stroke:#fceebe;stroke-miterlimit:10;stroke-width:3px;}.cls-3{opacity:0.62;fill:url(#radial-gradient-2);}.cls-4{opacity:0.21;fill:url(#radial-gradient-3);}.cls-5{opacity:0.3;fill:url(#radial-gradient-4);}.cls-6{opacity:0.22;fill:url(#radial-gradient-5);}.cls-12,.cls-7{opacity:0.19;}.cls-7{fill:url(#radial-gradient-6);}.cls-8{opacity:0.1;fill:url(#radial-gradient-7);}.cls-9{opacity:0.05;fill:url(#radial-gradient-8);}.cls-10{opacity:0.51;fill:url(#radial-gradient-9);}.cls-11{opacity:0.48;fill:url(#radial-gradient-10);}.cls-12{fill:url(#radial-gradient-11);}.cls-13{opacity:0.72;fill:url(#radial-gradient-12);}.cls-14{fill:url(#radial-gradient-13);}.cls-15{fill:url(#radial-gradient-14);}.cls-16{opacity:0.77;fill:url(#radial-gradient-15);}.cls-17{fill:url(#radial-gradient-16);}.cls-18{opacity:0.23;fill:url(#radial-gradient-17);}.cls-19,.cls-20{opacity:0.31;}.cls-19{fill:url(#radial-gradient-18);}.cls-20{fill:url(#radial-gradient-19);}</style><radialGradient id="radial-gradient" cx="786.92" cy="593" r="43.92" gradientTransform="matrix(0, 0.8, -2.47, 0, 1893.39, -109.15)" gradientUnits="userSpaceOnUse"><stop offset="0" stop-color="#fceebe"/><stop offset="0.1" stop-color="#f8eabb" stop-opacity="0.98"/><stop offset="0.23" stop-color="#ecdfb3" stop-opacity="0.92"/><stop offset="0.36" stop-color="#d9cda5" stop-opacity="0.83"/><stop offset="0.51" stop-color="#beb493" stop-opacity="0.69"/><stop offset="0.65" stop-color="#9b937a" stop-opacity="0.52"/><stop offset="0.81" stop-color="#706c5d" stop-opacity="0.31"/><stop offset="0.96" stop-color="#3e3d3a" stop-opacity="0.07"/><stop offset="1" stop-color="#303030" stop-opacity="0"/></radialGradient><radialGradient id="radial-gradient-2" cx="789.11" cy="636.63" r="43.92" gradientTransform="matrix(0, 1.11, -2.47, 0, 1922.25, -277.09)" xlink:href="#radial-gradient"/><radialGradient id="radial-gradient-3" cx="751.62" cy="557.64" r="43.92" gradientTransform="matrix(0, 1.3, -2.47, 0, 1847.38, -511.76)" xlink:href="#radial-gradient"/><radialGradient id="radial-gradient-4" cx="745.07" cy="520.13" r="43.92" gradientTransform="matrix(0, 1.18, -2.47, 0, 1818.69, -477.68)" xlink:href="#radial-gradient"/><radialGradient id="radial-gradient-5" cx="754.67" cy="489.01" r="43.92" gradientTransform="matrix(0, 1.07, -2.47, 0, 1796.03, -462.02)" xlink:href="#radial-gradient"/><radialGradient id="radial-gradient-6" cx="772.88" cy="439.36" r="43.92" gradientTransform="matrix(0, 0.8, -2.47, 0, 1756.61, -366.67)" xlink:href="#radial-gradient"/><radialGradient id="radial-gradient-7" cx="824.55" cy="407.7" r="43.92" gradientTransform="matrix(0, 0.8, -2.47, 0, 1755.45, -467.38)" xlink:href="#radial-gradient"/><radialGradient id="radial-gradient-8" cx="821.27" cy="377.87" r="43.92" gradientTransform="matrix(0, 0.8, -2.47, 0, 1733.54, -517.25)" xlink:href="#radial-gradient"/><radialGradient id="radial-gradient-9" cx="847.34" cy="331.94" r="43.92" gradientTransform="matrix(0, 0.8, -2.47, 0, 1716.95, -600.83)" xlink:href="#radial-gradient"/><radialGradient id="radial-gradient-10" cx="1101.74" cy="940.36" r="43.92" gradientTransform="matrix(0, 0.94, -2.03, 0, 2198.35, -381.67)" xlink:href="#radial-gradient"/><radialGradient id="radial-gradient-11" cx="949.87" cy="863.25" r="43.92" gradientTransform="matrix(0, 1.28, -2.03, 0, 2002.07, -510.59)" xlink:href="#radial-gradient"/><radialGradient id="radial-gradient-12" cx="799.42" cy="721.95" r="43.92" gradientTransform="matrix(0, 1.09, -2.58, 0, 2066.8, -67.52)" xlink:href="#radial-gradient"/><radialGradient id="radial-gradient-13" cx="800.72" cy="770.55" r="43.92" gradientTransform="matrix(0, 1.18, -2.03, 0, 1739.01, -69.84)" xlink:href="#radial-gradient"/><radialGradient id="radial-gradient-14" cx="803.77" cy="814.76" r="43.92" gradientTransform="matrix(0, 1.18, -3.15, 0, 2704.52, 20.03)" xlink:href="#radial-gradient"/><radialGradient id="radial-gradient-15" cx="802.86" cy="856.76" r="43.92" gradientTransform="matrix(0, 1.21, -2.03, 0, 1851.88, 69.24)" xlink:href="#radial-gradient"/><radialGradient id="radial-gradient-16" cx="802.35" cy="887.89" r="43.92" gradientTransform="matrix(0, 1.12, -2.03, 0, 1888.99, 200.62)" xlink:href="#radial-gradient"/><radialGradient id="radial-gradient-17" cx="813.39" cy="902.44" r="43.92" gradientTransform="matrix(0, 0.8, -2.03, 0, 1907.59, 473.02)" xlink:href="#radial-gradient"/><radialGradient id="radial-gradient-18" cx="817.78" cy="933.39" r="43.92" gradientTransform="matrix(0, 0.8, -2.03, 0, 1951.43, 529.5)" xlink:href="#radial-gradient"/><radialGradient id="radial-gradient-19" cx="826.64" cy="957.88" r="43.92" gradientTransform="matrix(0, 0.8, -2.03, 0, 1990.14, 571.39)" xlink:href="#radial-gradient"/></defs><g id="Layer_2" data-name="Layer 2"><g id="interactions:svg"><ellipse class="cls-1" cx="428.16" cy="522.01" rx="108.53" ry="35.23" transform="translate(-239.94 424.74) rotate(-42.36)"/><path id="m0" class="cls-2" d="M920.8,61.45c-.64-4.71,1.67-1.28,1.89-.85-.31-.27-1.43.92-1.11.18,2.25-.73,3.71.75,5.23,2.38,2.79-1.37,2.51-4.26-.73-4.48-5.71-7-7.6-1-12.18,3.85C898.34,76,882.87,94.16,869,107.66c-16.37,11.81-15.05,37.57-26.65,50.61C838,155,816.42,128.42,810.64,135.2c-2.2,2-2,4.11-4.77,2.3a40.93,40.93,0,0,0-16.39,10.44c-12.57,10-23.18,21.55-25.58,37.75-25,14-36.31,14.82-44.39,45.32-4.23.77-3-2.91-2.6-5.35C714.07,211.86,698,224.9,692,231c-15.25,16.79-31.55,33.32-46.81,48.21.75-.1,3.78-.52,3.14-.73-1,.13-2.18-.57-3.42,1-1,.79,2.12-1,1.92-.92-.51.25-.63.54-.77,1.15-.12,1.22-1.43-1.15-1.41-1.57-.1-1-.54,1.22,0,1-17.25-6,10.26-19.63,15.21-29.86,27.52-31.36-21.54,22.62-29.51,36.08-.68,17.66-21.58,17.17-25.65,31.55-11.26,16.46-22.16,35.1-40.74,44.1-6.22-2.81-5.88.52-10.67,4.82,3.44,12.4-13,17.18-16.94,27.91-19,26.15-47.85,42.32-65.68,69-19.29,11.91-29,31.43-39.08,50.8-4.89,14.16-23.5,26.27-33.77,38.94-64.51,64.94-153,116.78-186.5,207,.79,6.93-7.2,15.21.15,19.89-3.49,20.26-17.45,44.23-23.94,63.91-26.34,50.14-46.1,99.81-62.61,154.45-15.92,68.9-60.06,132-71.4,200,2.69,22.11-10.44,40.94-11.68,60.29-.94,5.77-6.47,9.34-9.15,14.56-2.62,8.57-2.72-11.19-3.42-11.77"/><ellipse class="cls-3" cx="349.21" cy="595.43" rx="108.53" ry="48.56" transform="translate(-310.02 390.72) rotate(-42.36)"/><ellipse class="cls-4" cx="469.52" cy="465.5" rx="108.53" ry="57.11" transform="translate(-189.29 521.32) rotate(-49.6)"/><ellipse class="cls-5" cx="533.5" cy="398.26" rx="108.53" ry="51.64" transform="translate(-115.57 546.39) rotate(-49.6)"/><ellipse class="cls-6" cx="587.74" cy="343.45" rx="108.53" ry="46.88" transform="translate(-54.75 568.41) rotate(-49.6)"/><ellipse class="cls-7" cx="671" cy="253.22" rx="108.53" ry="35.23" transform="translate(43.26 600.06) rotate(-49.6)"/><ellipse class="cls-8" cx="748.08" cy="193.95" rx="108.53" ry="35.23" transform="matrix(0.73, -0.69, 0.69, 0.73, 70.86, 566.26)"/><ellipse class="cls-9" cx="799.88" cy="141.45" rx="108.53" ry="35.23" transform="translate(121.02 587.5) rotate(-43.34)"/><ellipse class="cls-10" cx="896.77" cy="78.78" rx="108.53" ry="35.23" transform="translate(190.44 636.91) rotate(-43.34)"/><ellipse class="cls-11" cx="289.45" cy="653" rx="89.16" ry="41.25" transform="translate(-377.39 397.05) rotate(-45.1)"/><ellipse class="cls-12" cx="249.7" cy="707.01" rx="89.16" ry="56.3" transform="translate(-451.14 440.48) rotate(-49.73)"/><ellipse class="cls-13" cx="203.39" cy="805.09" rx="113.37" ry="47.94" transform="translate(-613.93 658.39) rotate(-65.65)"/><ellipse class="cls-14" cx="174.82" cy="876.67" rx="89.16" ry="51.92" transform="translate(-706.83 729.05) rotate(-69.22)"/><ellipse class="cls-15" cx="141.45" cy="965.61" rx="138.17" ry="51.67" transform="translate(-811.52 755.24) rotate(-69.22)"/><ellipse class="cls-16" cx="112.69" cy="1040.27" rx="89.16" ry="53.12" transform="translate(-899.88 776.51) rotate(-69.22)"/><ellipse class="cls-17" cx="86.6" cy="1097.96" rx="89.16" ry="49.12" transform="translate(-970.65 789.35) rotate(-69.22)"/><ellipse class="cls-18" cx="75.67" cy="1125.4" rx="89.16" ry="35.23" transform="translate(-1003.36 796.83) rotate(-69.22)"/><ellipse class="cls-19" cx="56.67" cy="1185.4" rx="89.16" ry="35.23" transform="translate(-1071.71 817.77) rotate(-69.22)"/><ellipse class="cls-20" cx="45.67" cy="1234.4" rx="89.16" ry="35.23" transform="translate(-1124.62 839.1) rotate(-69.22)"/></g></g></svg>