<svg xmlns="http://www.w3.org/2000/svg" xmlns:xlink="http://www.w3.org/1999/xlink" version="1.1" class="marks" width="464" height="347" viewBox="0 0 464 347"><rect width="464" height="347" fill="white"/><g fill="none" stroke-miterlimit="10" transform="translate(58,10)"><g class="mark-group role-frame root" role="graphics-object" aria-roledescription="group mark container"><g transform="translate(0,0)"><path class="background" aria-hidden="true" d="M0.5,0.5h400v300h-400Z" stroke="#ddd"/><g><g class="mark-group role-axis" aria-hidden="true"><g transform="translate(0.5,300.5)"><path class="background" aria-hidden="true" d="M0,0h0v0h0Z" pointer-events="none"/><g><g class="mark-rule role-axis-grid" pointer-events="none"><line transform="translate(0,-300)" x2="0" y2="300" stroke="#ddd" stroke-width="1" opacity="1"/><line transform="translate(40,-300)" x2="0" y2="300" stroke="#ddd" stroke-width="1" opacity="1"/><line transform="translate(80,-300)" x2="0" y2="300" stroke="#ddd" stroke-width="1" opacity="1"/><line transform="translate(120,-300)" x2="0" y2="300" stroke="#ddd" stroke-width="1" opacity="1"/><line transform="translate(160,-300)" x2="0" y2="300" stroke="#ddd" stroke-width="1" opacity="1"/><line transform="translate(200,-300)" x2="0" y2="300" stroke="#ddd" stroke-width="1" opacity="1"/><line transform="translate(240,-300)" x2="0" y2="300" stroke="#ddd" stroke-width="1" opacity="1"/><line transform="translate(280,-300)" x2="0" y2="300" stroke="#ddd" stroke-width="1" opacity="1"/><line transform="translate(320,-300)" x2="0" y2="300" stroke="#ddd" stroke-width="1" opacity="1"/><line transform="translate(360,-300)" x2="0" y2="300" stroke="#ddd" stroke-width="1" opacity="1"/><line transform="translate(400,-300)" x2="0" y2="300" stroke="#ddd" stroke-width="1" opacity="1"/></g></g><path class="foreground" aria-hidden="true" d="" pointer-events="none" display="none"/></g></g><g class="mark-group role-axis" aria-hidden="true"><g transform="translate(0.5,0.5)"><path class="background" aria-hidden="true" d="M0,0h0v0h0Z" pointer-events="none"/><g><g class="mark-rule role-axis-grid" pointer-events="none"><line transform="translate(0,300)" x2="400" y2="0" stroke="#ddd" stroke-width="1" opacity="1"/><line transform="translate(0,257)" x2="400" y2="0" stroke="#ddd" stroke-width="1" opacity="1"/><line transform="translate(0,214)" x2="400" y2="0" stroke="#ddd" stroke-width="1" opacity="1"/><line transform="translate(0,171)" x2="400" y2="0" stroke="#ddd" stroke-width="1" opacity="1"/><line transform="translate(0,129)" x2="400" y2="0" stroke="#ddd" stroke-width="1" opacity="1"/><line transform="translate(0,86)" x2="400" y2="0" stroke="#ddd" stroke-width="1" opacity="1"/><line transform="translate(0,43)" x2="400" y2="0" stroke="#ddd" stroke-width="1" opacity="1"/><line transform="translate(0,0)" x2="400" y2="0" stroke="#ddd" stroke-width="1" opacity="1"/></g></g><path class="foreground" aria-hidden="true" d="" pointer-events="none" display="none"/></g></g><g class="mark-group role-axis" role="graphics-symbol" aria-roledescription="axis" aria-label="X-axis titled 'index' for a linear scale with values from 1,975 to 2,025"><g transform="translate(0.5,300.5)"><path class="background" aria-hidden="true" d="M0,0h0v0h0Z" pointer-events="none"/><g><g class="mark-rule role-axis-tick" pointer-events="none"><line transform="translate(0,0)" x2="0" y2="5" stroke="#888" stroke-width="1" opacity="1"/><line transform="translate(40,0)" x2="0" y2="5" stroke="#888" stroke-width="1" opacity="1"/><line transform="translate(80,0)" x2="0" y2="5" stroke="#888" stroke-width="1" opacity="1"/><line transform="translate(120,0)" x2="0" y2="5" stroke="#888" stroke-width="1" opacity="1"/><line transform="translate(160,0)" x2="0" y2="5" stroke="#888" stroke-width="1" opacity="1"/><line transform="translate(200,0)" x2="0" y2="5" stroke="#888" stroke-width="1" opacity="1"/><line transform="translate(240,0)" x2="0" y2="5" stroke="#888" stroke-width="1" opacity="1"/><line transform="translate(280,0)" x2="0" y2="5" stroke="#888" stroke-width="1" opacity="1"/><line transform="translate(320,0)" x2="0" y2="5" stroke="#888" stroke-width="1" opacity="1"/><line transform="translate(360,0)" x2="0" y2="5" stroke="#888" stroke-width="1" opacity="1"/><line transform="translate(400,0)" x2="0" y2="5" stroke="#888" stroke-width="1" opacity="1"/></g><g class="mark-text role-axis-label" pointer-events="none"><text text-anchor="start" transform="translate(0,15)" font-family="sans-serif" font-size="10px" fill="#000" opacity="1">1,975</text><text text-anchor="middle" transform="translate(40,15)" font-family="sans-serif" font-size="10px" fill="#000" opacity="1">1,980</text><text text-anchor="middle" transform="translate(80,15)" font-family="sans-serif" font-size="10px" fill="#000" opacity="1">1,985</text><text text-anchor="middle" transform="translate(120,15)" font-family="sans-serif" font-size="10px" fill="#000" opacity="1">1,990</text><text text-anchor="middle" transform="translate(160,15)" font-family="sans-serif" font-size="10px" fill="#000" opacity="1">1,995</text><text text-anchor="middle" transform="translate(200,15)" font-family="sans-serif" font-size="10px" fill="#000" opacity="1">2,000</text><text text-anchor="middle" transform="translate(240,15)" font-family="sans-serif" font-size="10px" fill="#000" opacity="1">2,005</text><text text-anchor="middle" transform="translate(280,15)" font-family="sans-serif" font-size="10px" fill="#000" opacity="1">2,010</text><text text-anchor="middle" transform="translate(320,15)" font-family="sans-serif" font-size="10px" fill="#000" opacity="1">2,015</text><text text-anchor="middle" transform="translate(360,15)" font-family="sans-serif" font-size="10px" fill="#000" opacity="1">2,020</text><text text-anchor="end" transform="translate(400,15)" font-family="sans-serif" font-size="10px" fill="#000" opacity="1">2,025</text></g><g class="mark-rule role-axis-domain" pointer-events="none"><line transform="translate(0,0)" x2="400" y2="0" stroke="#888" stroke-width="1" opacity="1"/></g><g class="mark-text role-axis-title" pointer-events="none"><text text-anchor="middle" transform="translate(200,30)" font-family="sans-serif" font-size="11px" font-weight="bold" fill="#000" opacity="1">index</text></g></g><path class="foreground" aria-hidden="true" d="" pointer-events="none" display="none"/></g></g><g class="mark-group role-axis" role="graphics-symbol" aria-roledescription="axis" aria-label="Y-axis titled 'crossword_year' for a linear scale with values from 0 to 35,000"><g transform="translate(0.5,0.5)"><path class="background" aria-hidden="true" d="M0,0h0v0h0Z" pointer-events="none"/><g><g class="mark-rule role-axis-tick" pointer-events="none"><line transform="translate(0,300)" x2="-5" y2="0" stroke="#888" stroke-width="1" opacity="1"/><line transform="translate(0,257)" x2="-5" y2="0" stroke="#888" stroke-width="1" opacity="1"/><line transform="translate(0,214)" x2="-5" y2="0" stroke="#888" stroke-width="1" opacity="1"/><line transform="translate(0,171)" x2="-5" y2="0" stroke="#888" stroke-width="1" opacity="1"/><line transform="translate(0,129)" x2="-5" y2="0" stroke="#888" stroke-width="1" opacity="1"/><line transform="translate(0,86)" x2="-5" y2="0" stroke="#888" stroke-width="1" opacity="1"/><line transform="translate(0,43)" x2="-5" y2="0" stroke="#888" stroke-width="1" opacity="1"/><line transform="translate(0,0)" x2="-5" y2="0" stroke="#888" stroke-width="1" opacity="1"/></g><g class="mark-text role-axis-label" pointer-events="none"><text text-anchor="end" transform="translate(-7,303)" font-family="sans-serif" font-size="10px" fill="#000" opacity="1">0</text><text text-anchor="end" transform="translate(-7,260.14285714285717)" font-family="sans-serif" font-size="10px" fill="#000" opacity="1">5,000</text><text text-anchor="end" transform="translate(-7,217.28571428571428)" font-family="sans-serif" font-size="10px" fill="#000" opacity="1">10,000</text><text text-anchor="end" transform="translate(-7,174.42857142857142)" font-family="sans-serif" font-size="10px" fill="#000" opacity="1">15,000</text><text text-anchor="end" transform="translate(-7,131.57142857142858)" font-family="sans-serif" font-size="10px" fill="#000" opacity="1">20,000</text><text text-anchor="end" transform="translate(-7,88.71428571428571)" font-family="sans-serif" font-size="10px" fill="#000" opacity="1">25,000</text><text text-anchor="end" transform="translate(-7,45.85714285714287)" font-family="sans-serif" font-size="10px" fill="#000" opacity="1">30,000</text><text text-anchor="end" transform="translate(-7,3)" font-family="sans-serif" font-size="10px" fill="#000" opacity="1">35,000</text></g><g class="mark-rule role-axis-domain" pointer-events="none"><line transform="translate(0,300)" x2="0" y2="-300" stroke="#888" stroke-width="1" opacity="1"/></g><g class="mark-text role-axis-title" pointer-events="none"><text text-anchor="middle" transform="translate(-41.5859375,150) rotate(-90) translate(0,-2)" font-family="sans-serif" font-size="11px" font-weight="bold" fill="#000" opacity="1">crossword_year</text></g></g><path class="foreground" aria-hidden="true" d="" pointer-events="none" display="none"/></g></g><g class="mark-rect role-mark marks" role="graphics-object" aria-roledescription="rect mark container"><path aria-label="index: 1987; crossword_year: 31458" role="graphics-symbol" aria-roledescription="bar" d="M93.5,30.359999999999985h5v269.64h-5Z" fill="#4c78a8"/><path aria-label="index: 1988; crossword_year: 31456" role="graphics-symbol" aria-roledescription="bar" d="M101.5,30.377142857142847h5v269.62285714285713h-5Z" fill="#4c78a8"/><path aria-label="index: 1976; crossword_year: 31434" role="graphics-symbol" aria-roledescription="bar" d="M5.5,30.565714285714275h5v269.43428571428575h-5Z" fill="#4c78a8"/><path aria-label="index: 1977; crossword_year: 31404" role="graphics-symbol" aria-roledescription="bar" d="M13.5,30.822857142857142h5v269.1771428571429h-5Z" fill="#4c78a8"/><path aria-label="index: 1979; crossword_year: 31356" role="graphics-symbol" aria-roledescription="bar" d="M29.5,31.234285714285715h5v268.7657142857143h-5Z" fill="#4c78a8"/><path aria-label="index: 1980; crossword_year: 31332" role="graphics-symbol" aria-roledescription="bar" d="M37.5,31.44h5v268.56h-5Z" fill="#4c78a8"/><path aria-label="index: 1990; crossword_year: 31328" role="graphics-symbol" aria-roledescription="bar" d="M117.5,31.47428571428572h5v268.5257142857143h-5Z" fill="#4c78a8"/><path aria-label="index: 1989; crossword_year: 31302" role="graphics-symbol" aria-roledescription="bar" d="M109.50000000000001,31.697142857142868h5v268.30285714285714h-5Z" fill="#4c78a8"/><path aria-label="index: 1981; crossword_year: 31260" role="graphics-symbol" aria-roledescription="bar" d="M45.5,32.057142857142864h5v267.9428571428571h-5Z" fill="#4c78a8"/><path aria-label="index: 1984; crossword_year: 31252" role="graphics-symbol" aria-roledescription="bar" d="M69.5,32.1257142857143h5v267.8742857142857h-5Z" fill="#4c78a8"/><path aria-label="index: 1983; crossword_year: 31221" role="graphics-symbol" aria-roledescription="bar" d="M61.5,32.391428571428584h5v267.6085714285714h-5Z" fill="#4c78a8"/><path aria-label="index: 1982; crossword_year: 31216" role="graphics-symbol" aria-roledescription="bar" d="M53.50000000000001,32.434285714285714h5v267.5657142857143h-5Z" fill="#4c78a8"/><path aria-label="index: 1986; crossword_year: 31190" role="graphics-symbol" aria-roledescription="bar" d="M85.5,32.657142857142865h5v267.34285714285716h-5Z" fill="#4c78a8"/><path aria-label="index: 1991; crossword_year: 31074" role="graphics-symbol" aria-roledescription="bar" d="M125.5,33.651428571428575h5v266.3485714285714h-5Z" fill="#4c78a8"/><path aria-label="index: 1985; crossword_year: 31002" role="graphics-symbol" aria-roledescription="bar" d="M77.5,34.268571428571434h5v265.7314285714286h-5Z" fill="#4c78a8"/><path aria-label="index: 1995; crossword_year: 30827" role="graphics-symbol" aria-roledescription="bar" d="M157.5,35.76857142857144h5v264.2314285714286h-5Z" fill="#4c78a8"/><path aria-label="index: 1994; crossword_year: 30722" role="graphics-symbol" aria-roledescription="bar" d="M149.5,36.66857142857144h5v263.33142857142855h-5Z" fill="#4c78a8"/><path aria-label="index: 1996; crossword_year: 30688" role="graphics-symbol" aria-roledescription="bar" d="M165.5,36.959999999999994h5v263.04h-5Z" fill="#4c78a8"/><path aria-label="index: 1999; crossword_year: 30633" role="graphics-symbol" aria-roledescription="bar" d="M189.5,37.43142857142856h5v262.56857142857143h-5Z" fill="#4c78a8"/><path aria-label="index: 1992; crossword_year: 30626" role="graphics-symbol" aria-roledescription="bar" d="M133.5,37.491428571428585h5v262.50857142857143h-5Z" fill="#4c78a8"/><path aria-label="index: 2004; crossword_year: 30616" role="graphics-symbol" aria-roledescription="bar" d="M229.49999999999997,37.57714285714285h5v262.42285714285714h-5Z" fill="#4c78a8"/><path aria-label="index: 2000; crossword_year: 30611" role="graphics-symbol" aria-roledescription="bar" d="M197.5,37.61999999999999h5v262.38h-5Z" fill="#4c78a8"/><path aria-label="index: 1997; crossword_year: 30606" role="graphics-symbol" aria-roledescription="bar" d="M173.5,37.662857142857156h5v262.33714285714285h-5Z" fill="#4c78a8"/><path aria-label="index: 1998; crossword_year: 30546" role="graphics-symbol" aria-roledescription="bar" d="M181.5,38.177142857142854h5v261.8228571428572h-5Z" fill="#4c78a8"/><path aria-label="index: 1993; crossword_year: 30535" role="graphics-symbol" aria-roledescription="bar" d="M141.5,38.271428571428565h5v261.72857142857146h-5Z" fill="#4c78a8"/><path aria-label="index: 2006; crossword_year: 30523" role="graphics-symbol" aria-roledescription="bar" d="M245.5,38.374285714285726h5v261.62571428571425h-5Z" fill="#4c78a8"/><path aria-label="index: 2008; crossword_year: 30505" role="graphics-symbol" aria-roledescription="bar" d="M261.5,38.52857142857143h5v261.4714285714286h-5Z" fill="#4c78a8"/><path aria-label="index: 2010; crossword_year: 30467" role="graphics-symbol" aria-roledescription="bar" d="M277.5,38.85428571428571h5v261.1457142857143h-5Z" fill="#4c78a8"/><path aria-label="index: 2007; crossword_year: 30457" role="graphics-symbol" aria-roledescription="bar" d="M253.5,38.940000000000005h5v261.06h-5Z" fill="#4c78a8"/><path aria-label="index: 2003; crossword_year: 30452" role="graphics-symbol" aria-roledescription="bar" d="M221.50000000000003,38.98285714285714h5v261.01714285714286h-5Z" fill="#4c78a8"/><path aria-label="index: 2001; crossword_year: 30446" role="graphics-symbol" aria-roledescription="bar" d="M205.5,39.03428571428572h5v260.9657142857143h-5Z" fill="#4c78a8"/><path aria-label="index: 2020; crossword_year: 30423" role="graphics-symbol" aria-roledescription="bar" d="M357.5,39.23142857142856h5v260.7685714285714h-5Z" fill="#4c78a8"/><path aria-label="index: 2012; crossword_year: 30420" role="graphics-symbol" aria-roledescription="bar" d="M293.5,39.25714285714287h5v260.74285714285713h-5Z" fill="#4c78a8"/><path aria-label="index: 2014; crossword_year: 30396" role="graphics-symbol" aria-roledescription="bar" d="M309.5,39.46285714285715h5v260.53714285714284h-5Z" fill="#4c78a8"/><path aria-label="index: 2021; crossword_year: 30393" role="graphics-symbol" aria-roledescription="bar" d="M365.5,39.488571428571426h5v260.51142857142855h-5Z" fill="#4c78a8"/><path aria-label="index: 2011; crossword_year: 30374" role="graphics-symbol" aria-roledescription="bar" d="M285.5,39.65142857142858h5v260.3485714285714h-5Z" fill="#4c78a8"/><path aria-label="index: 2017; crossword_year: 30369" role="graphics-symbol" aria-roledescription="bar" d="M333.5,39.69428571428571h5v260.3057142857143h-5Z" fill="#4c78a8"/><path aria-label="index: 2016; crossword_year: 30365" role="graphics-symbol" aria-roledescription="bar" d="M325.5,39.728571428571435h5v260.27142857142854h-5Z" fill="#4c78a8"/><path aria-label="index: 2015; crossword_year: 30339" role="graphics-symbol" aria-roledescription="bar" d="M317.5,39.95142857142858h5v260.04857142857145h-5Z" fill="#4c78a8"/><path aria-label="index: 2019; crossword_year: 30280" role="graphics-symbol" aria-roledescription="bar" d="M349.5,40.45714285714287h5v259.54285714285714h-5Z" fill="#4c78a8"/><path aria-label="index: 2009; crossword_year: 30260" role="graphics-symbol" aria-roledescription="bar" d="M269.5,40.62857142857143h5v259.37142857142857h-5Z" fill="#4c78a8"/><path aria-label="index: 2005; crossword_year: 30245" role="graphics-symbol" aria-roledescription="bar" d="M237.5,40.75714285714287h5v259.24285714285713h-5Z" fill="#4c78a8"/><path aria-label="index: 2013; crossword_year: 30233" role="graphics-symbol" aria-roledescription="bar" d="M301.5,40.86h5v259.14h-5Z" fill="#4c78a8"/><path aria-label="index: 2018; crossword_year: 30205" role="graphics-symbol" aria-roledescription="bar" d="M341.5,41.1h5v258.9h-5Z" fill="#4c78a8"/><path aria-label="index: 2002; crossword_year: 30120" role="graphics-symbol" aria-roledescription="bar" d="M213.5,41.828571428571436h5v258.1714285714286h-5Z" fill="#4c78a8"/><path aria-label="index: 1978; crossword_year: 23900" role="graphics-symbol" aria-roledescription="bar" d="M21.5,95.14285714285715h5v204.85714285714283h-5Z" fill="#4c78a8"/><path aria-label="index: 2022; crossword_year: 15770" role="graphics-symbol" aria-roledescription="bar" d="M373.5,164.82857142857142h5v135.17142857142858h-5Z" fill="#4c78a8"/></g></g><path class="foreground" aria-hidden="true" d="" display="none"/></g></g></g></svg>