<svg xmlns="http://www.w3.org/2000/svg" xmlns:xlink="http://www.w3.org/1999/xlink" viewBox="0 0 711.78 697.89"><defs><style>.cls-1{fill:url(#radial-gradient);}.cls-2{fill:url(#radial-gradient-2);}.cls-3{fill:url(#radial-gradient-3);}.cls-4{fill:url(#radial-gradient-4);}.cls-5{fill:none;stroke:#fceebe;stroke-miterlimit:10;stroke-width:2px;}.cls-6{fill:#fceebe;}</style><radialGradient id="radial-gradient" cx="674.59" cy="1099.79" r="87.73" gradientTransform="matrix(-0.85, 0.43, 0.43, 0.85, 730.14, -761.67)" gradientUnits="userSpaceOnUse"><stop offset="0" stop-color="#fceebe"/><stop offset="0.09" stop-color="#f5e7b9" stop-opacity="0.96"/><stop offset="0.23" stop-color="#e1d4ab" stop-opacity="0.87"/><stop offset="0.4" stop-color="#c0b694" stop-opacity="0.71"/><stop offset="0.61" stop-color="#928c75" stop-opacity="0.48"/><stop offset="0.85" stop-color="#59564d" stop-opacity="0.2"/><stop offset="1" stop-color="#303030" stop-opacity="0"/></radialGradient><radialGradient id="radial-gradient-2" cx="853.04" cy="1009.37" r="87.73" gradientTransform="matrix(-0.85, 0.43, 0.43, 0.85, 730.14, -761.67)" gradientUnits="userSpaceOnUse"><stop offset="0" stop-color="#fceebe"/><stop offset="0.12" stop-color="#dfd3aa" stop-opacity="0.86"/><stop offset="0.45" stop-color="#958e76" stop-opacity="0.49"/><stop offset="0.71" stop-color="#5f5b50" stop-opacity="0.23"/><stop offset="0.9" stop-color="#3d3c39" stop-opacity="0.06"/><stop offset="1" stop-color="#303030" stop-opacity="0"/></radialGradient><radialGradient id="radial-gradient-3" cx="1018.45" cy="925.93" r="87.73" gradientTransform="matrix(-0.85, 0.43, 0.43, 0.85, 730.14, -761.67)" gradientUnits="userSpaceOnUse"><stop offset="0" stop-color="#fceebe"/><stop offset="0.04" stop-color="#efe2b5" stop-opacity="0.94"/><stop offset="0.19" stop-color="#bdb392" stop-opacity="0.69"/><stop offset="0.35" stop-color="#928b74" stop-opacity="0.48"/><stop offset="0.49" stop-color="#6f6b5c" stop-opacity="0.31"/><stop offset="0.64" stop-color="#535149" stop-opacity="0.17"/><stop offset="0.77" stop-color="#403f3b" stop-opacity="0.08"/><stop offset="0.9" stop-color="#343433" stop-opacity="0.02"/><stop offset="1" stop-color="#303030" stop-opacity="0"/></radialGradient><radialGradient id="radial-gradient-4" cx="1183.87" cy="842.49" r="87.73" gradientTransform="matrix(-0.85, 0.43, 0.43, 0.85, 730.14, -761.67)" gradientUnits="userSpaceOnUse"><stop offset="0" stop-color="#fceebe"/><stop offset="0.02" stop-color="#f1e4b6" stop-opacity="0.95"/><stop offset="0.09" stop-color="#c9be9a" stop-opacity="0.75"/><stop offset="0.17" stop-color="#a49c81" stop-opacity="0.57"/><stop offset="0.25" stop-color="#857f6b" stop-opacity="0.42"/><stop offset="0.33" stop-color="#6b6759" stop-opacity="0.29"/><stop offset="0.43" stop-color="#55534a" stop-opacity="0.18"/><stop offset="0.53" stop-color="#45433e" stop-opacity="0.1"/><stop offset="0.64" stop-color="#393836" stop-opacity="0.04"/><stop offset="0.78" stop-color="#323231" stop-opacity="0.01"/><stop offset="1" stop-color="#303030" stop-opacity="0"/></radialGradient></defs><g id="Layer_2" data-name="Layer 2"><g id="interactions:svg"><circle class="cls-1" cx="628.07" cy="464.99" r="83.69"/><circle class="cls-2" cx="437.21" cy="464.64" r="83.69"/><circle class="cls-3" cx="260.46" cy="464.64" r="83.69"/><circle class="cls-4" cx="83.71" cy="464.64" r="83.69"/><circle class="cls-5" cx="103.78" cy="252.47" r="89.32"/><circle class="cls-5" cx="302.67" cy="252.47" r="75.74"/><circle class="cls-5" cx="488.5" cy="252.47" r="62.15"/><circle class="cls-5" cx="647.16" cy="252.47" r="48.57"/><line class="cls-5" x1="96.19" y1="58.05" x2="96.19" y2="140.2"/><polygon class="cls-6" points="86.22 60.97 96.19 43.7 106.17 60.97 86.22 60.97"/><line class="cls-5" x1="255.19" y1="592.85" x2="255.19" y2="510.7"/><polygon class="cls-6" points="265.17 589.93 255.19 607.2 245.22 589.93 265.17 589.93"/><path class="cls-6" d="M14.65,23.86A11.28,11.28,0,0,1,12.17,23a9.89,9.89,0,0,1-2.11-1.36l1.74-2.61a7.87,7.87,0,0,0,2.58,1.47,8.9,8.9,0,0,0,3,.5,5.71,5.71,0,0,0,3.1-.71,2.26,2.26,0,0,0,1.1-2h0a2.08,2.08,0,0,0-.49-1.46,2.91,2.91,0,0,0-1.29-.79,14.45,14.45,0,0,0-2-.47l-.08,0h-.09l-.24,0a19.9,19.9,0,0,1-3.28-.78,4.68,4.68,0,0,1-2.19-1.62A5.26,5.26,0,0,1,11,9.83h0a6,6,0,0,1,.84-3.23,5.42,5.42,0,0,1,2.46-2,9.88,9.88,0,0,1,3.89-.69,10.46,10.46,0,0,1,2.14.23,11.76,11.76,0,0,1,2.1.7,12.6,12.6,0,0,1,2,1.14l-1.59,2.7a9.86,9.86,0,0,0-2.34-1.25A7,7,0,0,0,18.2,7a5.23,5.23,0,0,0-2.92.69,2.21,2.21,0,0,0-1,1.95h0a2,2,0,0,0,.53,1.49,3.09,3.09,0,0,0,1.33.8,22,22,0,0,0,2.24.54l.1,0,.1,0,.15,0,.15,0a15.86,15.86,0,0,1,3.09.89A4.88,4.88,0,0,1,24,15.09a5.28,5.28,0,0,1,.83,3.13v0A5.71,5.71,0,0,1,24,21.44a5.46,5.46,0,0,1-2.55,2,10.49,10.49,0,0,1-4,.69A13,13,0,0,1,14.65,23.86Z" transform="translate(-4.31 -3.86)"/><path class="cls-6" d="M31.74,23.94H28.4V4.06h3.34Z" transform="translate(-4.31 -3.86)"/><path class="cls-6" d="M48.07,7,39.65,20.81h8.69v3.13H35.71V21.05L44.16,7.19H36V4.06H48.07Z" transform="translate(-4.31 -3.86)"/><path class="cls-6" d="M52,4.06h3.27V23.94H52Zm1.35,0H65.08V7.19H53.39Zm0,8.45H63.58v3.12H53.39Zm0,8.3H65.08v3.13H53.39Z" transform="translate(-4.31 -3.86)"/><path class="cls-6" d="M79.84,23.24a6.4,6.4,0,0,1-2.51-2.57,8.1,8.1,0,0,1-.88-3.85V11.18a8.1,8.1,0,0,1,.88-3.85,6.4,6.4,0,0,1,2.51-2.57,8.18,8.18,0,0,1,7.46,0,6.31,6.31,0,0,1,2.5,2.57,8,8,0,0,1,.89,3.85v5.64a8,8,0,0,1-.89,3.85,6.31,6.31,0,0,1-2.5,2.57,8.18,8.18,0,0,1-7.46,0Zm5.7-2.83A3.31,3.31,0,0,0,86.86,19a4.54,4.54,0,0,0,.47-2.1V11.09A4.54,4.54,0,0,0,86.86,9a3.31,3.31,0,0,0-1.32-1.4,4.23,4.23,0,0,0-4,0A3.31,3.31,0,0,0,80.27,9a4.54,4.54,0,0,0-.46,2.1v5.82a4.54,4.54,0,0,0,.46,2.1,3.31,3.31,0,0,0,1.32,1.4,4.23,4.23,0,0,0,4,0Z" transform="translate(-4.31 -3.86)"/><path class="cls-6" d="M94.94,4.06H98.2V23.94H94.94Zm1.36,0h11.42V7.19H96.3Zm0,8.63h9.91V15.8H96.3Z" transform="translate(-4.31 -3.86)"/><path class="cls-6" d="M118.67,4.06h3.27V23.94h-3.27Zm1.57,9h6.36a2.44,2.44,0,0,0,2.32-1.4,3.42,3.42,0,0,0,.33-1.54,3.51,3.51,0,0,0-.33-1.56,2.35,2.35,0,0,0-.93-1,2.56,2.56,0,0,0-1.39-.37h-6.36V4.06h6.26a6.47,6.47,0,0,1,3.2.76A5.4,5.4,0,0,1,131.85,7a6.5,6.5,0,0,1,.77,3.2,6.46,6.46,0,0,1-.77,3.19,5.31,5.31,0,0,1-2.15,2.13,6.58,6.58,0,0,1-3.2.75h-6.26Z" transform="translate(-4.31 -3.86)"/><path class="cls-6" d="M140.7,4.06h2.38l7.46,19.88H147L141.89,9.13l-5.14,14.81h-3.51Zm-3.95,13h10.46v3.13H136.75Z" transform="translate(-4.31 -3.86)"/><path class="cls-6" d="M150.28,4.06h14.3V7.19h-14.3Zm5.52,1.63h3.26V23.94H155.8Z" transform="translate(-4.31 -3.86)"/><path class="cls-6" d="M167.32,4.06h3.27V23.94h-3.27Zm1.74,8.49h11.3v3.13h-11.3Zm9.35-8.49h3.27V23.94h-3.27Z" transform="translate(-4.31 -3.86)"/><path class="cls-6" d="M190.9,648.06h2.38l7.47,19.88h-3.52l-5.14-14.81L187,667.94h-3.51Zm-4,13h10.46v3.13H187Z" transform="translate(-4.31 -3.86)"/><path class="cls-6" d="M217.16,648.06h3.77v19.88h-3.06V652.78l.14.87-4.35,11.8H211l-4.34-11.52.13-1.15v15.16h-3.06V648.06h3.77l4.82,13.26Z" transform="translate(-4.31 -3.86)"/><path class="cls-6" d="M228.84,667.24a6.38,6.38,0,0,1-2.5-2.57,8.07,8.07,0,0,1-.89-3.85v-5.64a8.1,8.1,0,0,1,.89-3.85,6.38,6.38,0,0,1,2.5-2.57,8.2,8.2,0,0,1,7.47,0,6.44,6.44,0,0,1,2.5,2.57,8.1,8.1,0,0,1,.89,3.85v5.64a8.07,8.07,0,0,1-.89,3.85,6.44,6.44,0,0,1-2.5,2.57,8.2,8.2,0,0,1-7.47,0Zm5.71-2.83a3.31,3.31,0,0,0,1.32-1.4,4.54,4.54,0,0,0,.46-2.1v-5.82a4.54,4.54,0,0,0-.46-2.1,3.31,3.31,0,0,0-1.32-1.4,4.23,4.23,0,0,0-4,0,3.31,3.31,0,0,0-1.32,1.4,4.54,4.54,0,0,0-.47,2.1v5.82a4.54,4.54,0,0,0,.47,2.1,3.31,3.31,0,0,0,1.32,1.4,4.23,4.23,0,0,0,4,0Z" transform="translate(-4.31 -3.86)"/><path class="cls-6" d="M246.66,667.28a5.77,5.77,0,0,1-2.43-2.53,8.78,8.78,0,0,1-.84-4V648.06h3.27v12.78a4.21,4.21,0,0,0,1,3,3.7,3.7,0,0,0,2.83,1.07,3.76,3.76,0,0,0,2.86-1.07,4.17,4.17,0,0,0,1-3V648.06h3.27v12.69a8.78,8.78,0,0,1-.84,4,5.79,5.79,0,0,1-2.44,2.53,9,9,0,0,1-7.7,0Z" transform="translate(-4.31 -3.86)"/><path class="cls-6" d="M262,648.06h3.56l8.56,15.3-.33.35V648.06H277v19.87H273.4l-8.53-15.07.32-.36v15.43H262Z" transform="translate(-4.31 -3.86)"/><path class="cls-6" d="M280.27,648.06h14.3v3.13h-14.3Zm5.52,1.63H289v18.25h-3.25Z" transform="translate(-4.31 -3.86)"/><path class="cls-6" d="M307.54,667.24a6.38,6.38,0,0,1-2.5-2.57,8.07,8.07,0,0,1-.89-3.85v-5.64a8.1,8.1,0,0,1,.89-3.85,6.38,6.38,0,0,1,2.5-2.57,8.2,8.2,0,0,1,7.47,0,6.38,6.38,0,0,1,2.5,2.57,8.1,8.1,0,0,1,.89,3.85v5.64a8.07,8.07,0,0,1-.89,3.85,6.38,6.38,0,0,1-2.5,2.57,8.2,8.2,0,0,1-7.47,0Zm5.71-2.83a3.31,3.31,0,0,0,1.32-1.4,4.54,4.54,0,0,0,.46-2.1v-5.82a4.54,4.54,0,0,0-.46-2.1,3.31,3.31,0,0,0-1.32-1.4,4.23,4.23,0,0,0-3.95,0A3.31,3.31,0,0,0,308,653a4.54,4.54,0,0,0-.47,2.1v5.82A4.54,4.54,0,0,0,308,663a3.31,3.31,0,0,0,1.32,1.4,4.23,4.23,0,0,0,3.95,0Z" transform="translate(-4.31 -3.86)"/><path class="cls-6" d="M322.64,648.06h3.27v19.88h-3.27Zm1.37,0h11.42v3.13H324Zm0,8.63h9.91v3.11H324Z" transform="translate(-4.31 -3.86)"/><path class="cls-6" d="M223.68,681.66H227v19.88h-3.27Zm1.53,16.75h11.51v3.13H225.21Z" transform="translate(-4.31 -3.86)"/><path class="cls-6" d="M243.21,701.54h-3.33V681.66h3.33Z" transform="translate(-4.31 -3.86)"/><path class="cls-6" d="M261.87,690.63v3.68a8.31,8.31,0,0,1-.89,3.9,6.19,6.19,0,0,1-2.48,2.61,7.34,7.34,0,0,1-3.73.92,7.84,7.84,0,0,1-3.76-.86,6.1,6.1,0,0,1-2.52-2.46,7.3,7.3,0,0,1-.9-3.68v-5.86a8.37,8.37,0,0,1,.88-3.9,6.31,6.31,0,0,1,2.49-2.6,7.29,7.29,0,0,1,3.73-.92,7.1,7.1,0,0,1,3.21.73,6.65,6.65,0,0,1,2.46,2.07,7.75,7.75,0,0,1,1.34,3.1h-3.53a3.49,3.49,0,0,0-.75-1.41,3.54,3.54,0,0,0-1.25-.89,3.64,3.64,0,0,0-1.48-.31,3.69,3.69,0,0,0-2,.51,3.54,3.54,0,0,0-1.31,1.45,4.84,4.84,0,0,0-.46,2.17v5.86a3.86,3.86,0,0,0,.47,2,3.17,3.17,0,0,0,1.34,1.3,4.16,4.16,0,0,0,2,.46,3.84,3.84,0,0,0,2-.49,3.21,3.21,0,0,0,1.3-1.4,4.86,4.86,0,0,0,.46-2.2v-.6H255v-3.13Z" transform="translate(-4.31 -3.86)"/><path class="cls-6" d="M266.11,681.66h3.27v19.88h-3.27Zm1.74,8.49h11.3v3.13h-11.3Zm9.35-8.49h3.27v19.88H277.2Z" transform="translate(-4.31 -3.86)"/><path class="cls-6" d="M283.75,681.66h14.3v3.13h-14.3Zm5.53,1.63h3.25v18.25h-3.25Z" transform="translate(-4.31 -3.86)"/></g></g></svg>