<?xml version="1.0" encoding="utf-8"?>
<!-- Generator: Adobe Illustrator 25.4.1, SVG Export Plug-In . SVG Version: 6.00 Build 0)  -->
<svg version="1.2" baseProfile="tiny" id="g-Graph1-lg-interactions-img" xmlns="http://www.w3.org/2000/svg" xmlns:xlink="http://www.w3.org/1999/xlink"
	 x="0px" y="0px" viewBox="0 0 800 486.292" overflow="visible" xml:space="preserve">
<g>
	
		
	<path id="m0" style="opacity:0.5;" fill="none" stroke="#FCEEBE" stroke-width="3" stroke-miterlimit="10" d="M618.524,27.514
		c-0.509-1.222,0.356-0.466,0.446-0.365c-0.103-0.051-0.317,0.35-0.286,0.129c0.554-0.36,1.054-0.064,1.579,0.265
		c0.654-0.568,0.37-1.328-0.518-1.153c-2.035-1.465-2.119,0.268-3.001,1.908c-3.224,4.732-6.085,10.733-8.865,15.364
		c-3.559,4.349-1.359,11.187-3.548,15.528c-1.386-0.585-9.102-6.18-10.171-3.941c-0.448,0.703-0.245,1.25-1.121,0.961
		c-1.224,0.741-2.861,2.421-3.663,3.983c-2.666,3.59-4.695,7.461-4.178,11.993c-5.724,5.569-8.712,6.588-8.702,15.375
		c-1.081,0.511-1.016-0.569-1.081-1.253c-1.754-3.51-5.14,1.147-6.324,3.217c-2.9,5.609-6.104,11.225-9.144,16.326
		c0.195-0.08,0.981-0.411,0.794-0.421c-0.272,0.109-0.628,0.003-0.847,0.52c-0.208,0.285,0.496-0.428,0.45-0.385
		c-0.118,0.104-0.13,0.191-0.124,0.365c0.056,0.337-0.468-0.208-0.492-0.321c-0.097-0.257-0.058,0.368,0.055,0.26
		c-5.074-0.387,1.354-6.018,1.953-9.125c5.16-10.41-4.175,7.63-5.356,11.823c1.081,4.802-4.577,6.166-4.644,10.329
		c-1.852,5.235-3.449,11.033-7.805,14.785c-1.874-0.312-1.544,0.561-2.526,2.061c1.813,3.091-2.256,5.551-2.56,8.723
		c-3.252,8.402-9.845,14.816-12.732,23.283c-4.337,4.585-5.547,10.532-6.877,16.467c-0.303,4.164-4.442,8.755-6.298,12.899
		c-12.711,22.097-32.809,42.385-35.366,69.06c0.711,1.807-0.847,4.607,1.467,5.341c0.512,5.702-1.529,13.151-1.866,18.915
		c-3.497,15.377-5.257,30.159-5.785,46.047c0.651,19.682-6.707,39.834-4.893,58.93c2.307,5.757,0.123,11.765,1.176,17.06
		c0.161,1.622-1.074,2.978-1.42,4.574c-0.092,2.495-1.534-2.814-1.765-2.922"/>
	
		
	
		
	
		
	
		
	
		
	
		
	
		
	
		
	
		
	
		
	
		
	
	
	
		
	
		
	
		
	
		
	
		
	<circle fill="none" stroke="#FCEEBE" stroke-width="2" stroke-miterlimit="10" cx="597.278" cy="56.404" r="17.458"/>
	<circle fill="none" stroke="#FCEEBE" stroke-width="2" stroke-miterlimit="10" cx="482.136" cy="277.93" r="26.102"/>
</g>
<style>
#g-Graph1-lg-interactions-img rect, #g-Graph1-lg-interactions-img circle, #g-Graph1-lg-interactions-img path, #g-Graph1-lg-interactions-img line, #g-Graph1-lg-interactions-img polyline, #g-Graph1-lg-interactions-img polygon { vector-effect: non-scaling-stroke; }
</style>
</svg>

