<svg xmlns="http://www.w3.org/2000/svg" xmlns:xlink="http://www.w3.org/1999/xlink" viewBox="0 0 711.78 351.96"><defs><style>.cls-1{fill:url(#radial-gradient);}.cls-2{fill:url(#radial-gradient-2);}.cls-3{fill:url(#radial-gradient-3);}.cls-4{fill:url(#radial-gradient-4);}.cls-5{fill:none;stroke:#fceebe;stroke-miterlimit:10;stroke-width:2px;}.cls-6{fill:#fceebe;}</style><radialGradient id="radial-gradient" cx="680.59" cy="715" r="87.73" gradientTransform="matrix(-0.85, 0.43, 0.43, 0.85, 900.58, -817.42)" gradientUnits="userSpaceOnUse"><stop offset="0" stop-color="#fceebe"/><stop offset="0.09" stop-color="#f5e7b9" stop-opacity="0.96"/><stop offset="0.23" stop-color="#e1d4ab" stop-opacity="0.87"/><stop offset="0.4" stop-color="#c0b694" stop-opacity="0.71"/><stop offset="0.61" stop-color="#928c75" stop-opacity="0.48"/><stop offset="0.85" stop-color="#59564d" stop-opacity="0.2"/><stop offset="1" stop-color="#303030" stop-opacity="0"/></radialGradient><radialGradient id="radial-gradient-2" cx="859.04" cy="624.58" r="87.73" gradientTransform="matrix(-0.85, 0.43, 0.43, 0.85, 900.58, -817.42)" gradientUnits="userSpaceOnUse"><stop offset="0" stop-color="#fceebe"/><stop offset="0.12" stop-color="#dfd3aa" stop-opacity="0.86"/><stop offset="0.45" stop-color="#958e76" stop-opacity="0.49"/><stop offset="0.71" stop-color="#5f5b50" stop-opacity="0.23"/><stop offset="0.9" stop-color="#3d3c39" stop-opacity="0.06"/><stop offset="1" stop-color="#303030" stop-opacity="0"/></radialGradient><radialGradient id="radial-gradient-3" cx="1024.45" cy="541.15" r="87.73" gradientTransform="matrix(-0.85, 0.43, 0.43, 0.85, 900.58, -817.42)" gradientUnits="userSpaceOnUse"><stop offset="0" stop-color="#fceebe"/><stop offset="0.04" stop-color="#efe2b5" stop-opacity="0.94"/><stop offset="0.19" stop-color="#bdb392" stop-opacity="0.69"/><stop offset="0.35" stop-color="#928b74" stop-opacity="0.48"/><stop offset="0.49" stop-color="#6f6b5c" stop-opacity="0.31"/><stop offset="0.64" stop-color="#535149" stop-opacity="0.17"/><stop offset="0.77" stop-color="#403f3b" stop-opacity="0.08"/><stop offset="0.9" stop-color="#343433" stop-opacity="0.02"/><stop offset="1" stop-color="#303030" stop-opacity="0"/></radialGradient><radialGradient id="radial-gradient-4" cx="1189.87" cy="457.71" r="87.73" gradientTransform="matrix(-0.85, 0.43, 0.43, 0.85, 900.58, -817.42)" gradientUnits="userSpaceOnUse"><stop offset="0" stop-color="#fceebe"/><stop offset="0.02" stop-color="#f1e4b6" stop-opacity="0.95"/><stop offset="0.09" stop-color="#c9be9a" stop-opacity="0.75"/><stop offset="0.17" stop-color="#a49c81" stop-opacity="0.57"/><stop offset="0.25" stop-color="#857f6b" stop-opacity="0.42"/><stop offset="0.33" stop-color="#6b6759" stop-opacity="0.29"/><stop offset="0.43" stop-color="#55534a" stop-opacity="0.18"/><stop offset="0.53" stop-color="#45433e" stop-opacity="0.1"/><stop offset="0.64" stop-color="#393836" stop-opacity="0.04"/><stop offset="0.78" stop-color="#323231" stop-opacity="0.01"/><stop offset="1" stop-color="#303030" stop-opacity="0"/></radialGradient></defs><g id="Layer_2" data-name="Layer 2"><g id="interactions:svg"><circle class="cls-1" cx="628.07" cy="84.06" r="83.69"/><circle class="cls-2" cx="437.21" cy="83.71" r="83.69"/><circle class="cls-3" cx="260.46" cy="83.71" r="83.69"/><circle class="cls-4" cx="83.71" cy="83.71" r="83.69"/><line class="cls-5" x1="84.19" y1="246.92" x2="84.19" y2="164.77"/><polygon class="cls-6" points="94.17 244 84.19 261.27 74.22 244 94.17 244"/><path class="cls-6" d="M25.9,298.28h2.38l7.47,19.88H32.23l-5.14-14.81L22,318.16H18.44Zm-3.95,13H32.41v3.13H22Z" transform="translate(-10.31)"/><path class="cls-6" d="M52.16,298.28h3.77v19.88H52.87V303l.14.88-4.35,11.8H46l-4.34-11.53.13-1.15v15.17H38.76V298.28h3.77l4.82,13.26Z" transform="translate(-10.31)"/><path class="cls-6" d="M63.84,317.45a6.32,6.32,0,0,1-2.5-2.57,8.07,8.07,0,0,1-.89-3.85V305.4a8.07,8.07,0,0,1,.89-3.85,6.32,6.32,0,0,1,2.5-2.57,8.12,8.12,0,0,1,7.47,0,6.38,6.38,0,0,1,2.5,2.57,8.07,8.07,0,0,1,.89,3.85V311a8.07,8.07,0,0,1-.89,3.85,6.38,6.38,0,0,1-2.5,2.57,8.12,8.12,0,0,1-7.47,0Zm5.71-2.82a3.37,3.37,0,0,0,1.32-1.4,4.57,4.57,0,0,0,.46-2.1V305.3a4.5,4.5,0,0,0-.46-2.09,3.33,3.33,0,0,0-1.32-1.41,4.23,4.23,0,0,0-4,0,3.33,3.33,0,0,0-1.32,1.41,4.5,4.5,0,0,0-.47,2.09v5.83a4.57,4.57,0,0,0,.47,2.1,3.37,3.37,0,0,0,1.32,1.4,4.23,4.23,0,0,0,4,0Z" transform="translate(-10.31)"/><path class="cls-6" d="M81.66,317.49A5.72,5.72,0,0,1,79.23,315a8.75,8.75,0,0,1-.84-4V298.28h3.27v12.78a4.23,4.23,0,0,0,1,3,3.7,3.7,0,0,0,2.83,1.06,3.75,3.75,0,0,0,2.86-1.06,4.18,4.18,0,0,0,1-3V298.28h3.27V311a8.75,8.75,0,0,1-.84,4,5.74,5.74,0,0,1-2.44,2.53,9,9,0,0,1-7.7,0Z" transform="translate(-10.31)"/><path class="cls-6" d="M97,298.28h3.56l8.56,15.3-.33.35V298.28H112v19.86H108.4l-8.53-15.06.32-.36v15.42H97Z" transform="translate(-10.31)"/><path class="cls-6" d="M115.27,298.28h14.3v3.13h-14.3Zm5.52,1.62H124v18.26h-3.25Z" transform="translate(-10.31)"/><path class="cls-6" d="M142.54,317.45a6.32,6.32,0,0,1-2.5-2.57,8.07,8.07,0,0,1-.89-3.85V305.4a8.07,8.07,0,0,1,.89-3.85,6.32,6.32,0,0,1,2.5-2.57,8.12,8.12,0,0,1,7.47,0,6.32,6.32,0,0,1,2.5,2.57,8.07,8.07,0,0,1,.89,3.85V311a8.07,8.07,0,0,1-.89,3.85,6.32,6.32,0,0,1-2.5,2.57,8.12,8.12,0,0,1-7.47,0Zm5.71-2.82a3.37,3.37,0,0,0,1.32-1.4,4.57,4.57,0,0,0,.46-2.1V305.3a4.5,4.5,0,0,0-.46-2.09,3.33,3.33,0,0,0-1.32-1.41,4.23,4.23,0,0,0-3.95,0,3.33,3.33,0,0,0-1.32,1.41,4.5,4.5,0,0,0-.47,2.09v5.83a4.57,4.57,0,0,0,.47,2.1,3.37,3.37,0,0,0,1.32,1.4,4.23,4.23,0,0,0,3.95,0Z" transform="translate(-10.31)"/><path class="cls-6" d="M157.64,298.28h3.27v19.88h-3.27Zm1.37,0h11.42v3.13H159Zm0,8.62h9.91V310H159Z" transform="translate(-10.31)"/><path class="cls-6" d="M58.68,331.88H62v19.88H58.68Zm1.53,16.74H71.72v3.14H60.21Z" transform="translate(-10.31)"/><path class="cls-6" d="M78.21,351.76H74.88V331.88h3.33Z" transform="translate(-10.31)"/><path class="cls-6" d="M96.87,340.84v3.68a8.32,8.32,0,0,1-.89,3.91A6.31,6.31,0,0,1,93.5,351a7.45,7.45,0,0,1-3.73.92,7.85,7.85,0,0,1-3.76-.87,6.07,6.07,0,0,1-2.52-2.45,7.35,7.35,0,0,1-.9-3.68v-5.87a8.35,8.35,0,0,1,.88-3.89A6.39,6.39,0,0,1,86,332.59a7.39,7.39,0,0,1,3.73-.92,7.24,7.24,0,0,1,3.21.73,6.74,6.74,0,0,1,2.46,2.07,7.79,7.79,0,0,1,1.34,3.11H93.17a3.42,3.42,0,0,0-.75-1.41,3.7,3.7,0,0,0-1.25-.9,3.8,3.8,0,0,0-1.48-.3,3.69,3.69,0,0,0-2,.51,3.42,3.42,0,0,0-1.31,1.45,4.77,4.77,0,0,0-.46,2.16V345a3.86,3.86,0,0,0,.47,2,3.23,3.23,0,0,0,1.34,1.3,4.28,4.28,0,0,0,2,.46,3.94,3.94,0,0,0,2-.49,3.18,3.18,0,0,0,1.3-1.41,4.78,4.78,0,0,0,.46-2.19V344H90v-3.14Z" transform="translate(-10.31)"/><path class="cls-6" d="M101.11,331.88h3.27v19.88h-3.27Zm1.74,8.49h11.3v3.13h-11.3Zm9.35-8.49h3.27v19.88H112.2Z" transform="translate(-10.31)"/><path class="cls-6" d="M118.75,331.88h14.3V335h-14.3Zm5.53,1.62h3.25v18.26h-3.25Z" transform="translate(-10.31)"/></g></g></svg>