<?xml version="1.0" encoding="utf-8"?>
<!-- Generator: Adobe Illustrator 25.4.1, SVG Export Plug-In . SVG Version: 6.00 Build 0)  -->
<svg version="1.2" baseProfile="tiny" id="g-map-Artboard_1-interactions-img" xmlns="http://www.w3.org/2000/svg" xmlns:xlink="http://www.w3.org/1999/xlink"
	 x="0px" y="0px" viewBox="0 0 2832 2133.292" overflow="visible" xml:space="preserve">
<g>
	
		
	<path id="m0" style="opacity:0.5;" fill="none" stroke="#FCEEBE" stroke-width="3" stroke-miterlimit="10" d="M2123.452,487.692
		c-0.637-4.711,1.667-1.286,1.885-0.855c-0.31-0.271-1.425,0.923-1.111,0.183c2.256-0.736,3.719,0.751,5.234,2.379
		c2.794-1.367,2.51-4.266-0.733-4.48c-5.71-6.964-7.599-1.028-12.175,3.849c-15.558,13.443-31.028,31.624-44.952,45.13
		c-16.367,11.806-15.047,37.567-26.652,50.607c-4.27-3.312-25.877-29.852-31.653-23.07c-2.206,2.025-2.006,4.112-4.778,2.298
		c-4.93,1.44-12.166,5.759-16.389,10.438c-12.566,9.996-23.182,21.556-25.574,37.757c-25.006,14.039-36.316,14.815-44.397,45.315
		c-4.224,0.776-3.001-2.912-2.592-5.346c-2.844-13.799-18.896-0.765-24.918,5.321c-15.245,16.787-31.548,33.317-46.808,48.21
		c0.751-0.099,3.785-0.519,3.144-0.728c-1.044,0.128-2.182-0.57-3.418,1.024c-0.984,0.797,2.117-1.028,1.915-0.919
		c-0.504,0.252-0.627,0.544-0.769,1.153c-0.116,1.222-1.432-1.155-1.412-1.569c-0.1-0.981-0.54,1.223-0.049,0.952
		c-17.249-6.03,10.256-19.633,15.207-29.862c27.519-31.361-21.535,22.62-29.506,36.08c-0.683,17.662-21.579,17.169-25.654,31.553
		c-11.26,16.455-22.16,35.101-40.739,44.097c-6.214-2.813-5.875,0.522-10.669,4.818c3.438,12.4-12.954,17.178-16.938,27.906
		c-19.045,26.154-47.848,42.322-65.684,69.038c-19.284,11.905-28.976,31.424-39.072,50.792
		c-4.898,14.169-23.501,26.278-33.77,38.944c-64.519,64.941-152.999,116.779-186.508,206.985c0.799,6.928-7.194,15.206,0.158,19.888
		c-3.49,20.26-17.453,44.224-23.946,63.913c-26.336,50.131-46.097,99.8-62.604,154.448c-15.92,68.901-60.064,132.037-71.407,199.977
		c2.688,22.107-10.441,40.94-11.674,60.286c-0.94,5.776-6.477,9.341-9.15,14.56c-2.623,8.575-2.725-11.182-3.426-11.769"/>
	
	
	
	
	
		
	
	
	
	
		
	
		
	
	
	
	
	
		
	
	
		
	
</g>
<style>
#g-map-Artboard_1-interactions-img rect, #g-map-Artboard_1-interactions-img circle, #g-map-Artboard_1-interactions-img path, #g-map-Artboard_1-interactions-img line, #g-map-Artboard_1-interactions-img polyline, #g-map-Artboard_1-interactions-img polygon { vector-effect: non-scaling-stroke; }
</style>
</svg>

